<?xml version="1.0" standalone="no"?>
<!DOCTYPE svg PUBLIC "-//W3C//DTD SVG 20010904//EN"
 "http://www.w3.org/TR/2001/REC-SVG-20010904/DTD/svg10.dtd">
<svg version="1.0" xmlns="http://www.w3.org/2000/svg"
 width="621.000000pt" height="621.000000pt" viewBox="0 0 621.000000 621.000000"
 preserveAspectRatio="xMidYMid meet">
<metadata>
Created by potrace 1.14, written by Peter Selinger 2001-2017
</metadata>
<g transform="translate(0.000000,621.000000) scale(0.100000,-0.100000)"
fill="#000000" stroke="none">
<path d="M0 3105 l0 -3105 3105 0 3105 0 0 3105 0 3105 -3105 0 -3105 0 0
-3105z m2630 -1842 c581 -196 629 -211 729 -219 211 -18 448 93 578 270 l44
60 -46 24 -47 23 -95 -17 c-84 -15 -181 -16 -267 -2 -18 3 -22 -10 -42 -146
-23 -158 -31 -176 -80 -176 -60 0 -65 42 -31 274 22 150 22 150 3 210 -11 34
-20 62 -20 62 -1 1 -32 -4 -71 -12 -97 -18 -249 -18 -314 2 l-53 16 -123 -121
c-71 -71 -130 -121 -141 -121 -35 0 -64 29 -64 62 0 26 18 49 110 143 l111
112 -31 64 c-17 38 -33 90 -36 127 l-7 63 -61 -6 c-40 -4 -86 -1 -132 8 -219
46 -348 205 -315 389 26 149 115 265 257 334 l81 39 -5 140 c-7 208 25 402 77
466 61 76 266 -75 354 -260 23 -47 45 -89 50 -92 5 -4 29 -9 53 -13 56 -7 136
-47 196 -97 l47 -39 53 33 c116 73 254 108 371 93 81 -10 101 -32 93 -97 -4
-27 -9 -56 -12 -64 -5 -13 7 -15 72 -15 44 0 96 -4 117 -9 l37 -9 0 1087 0
1086 391 325 c215 179 420 349 455 378 l64 54 0 -2295 0 -2295 -346 -292 -346
-292 -372 124 c-204 69 -892 299 -1528 513 l-1158 387 0 1698 0 1697 453 376
452 376 5 -2131 5 -2130 485 -165z"/>
<path d="M2701 3158 c-17 -89 -24 -212 -16 -312 7 -96 7 -96 34 -96 36 0 51
-17 51 -56 0 -42 -15 -53 -97 -70 -216 -45 -356 -206 -321 -371 14 -62 75
-123 154 -153 52 -19 72 -21 169 -17 129 6 200 23 310 76 134 64 236 175 286
311 24 67 53 87 94 68 49 -22 43 -74 -24 -203 -81 -156 -243 -281 -446 -343
-29 -9 -30 -11 -28 -69 1 -34 9 -75 18 -93 l16 -31 44 40 c49 45 82 52 108 23
24 -27 21 -66 -9 -101 -23 -27 -24 -32 -9 -37 30 -12 218 5 295 25 140 38 161
28 158 -82 -3 -87 9 -112 65 -138 51 -23 128 -24 222 -3 133 29 136 29 193 -7
34 -21 56 -29 62 -23 6 6 17 41 25 80 12 55 15 167 15 566 l0 497 -57 12 c-33
6 -95 9 -143 7 l-85 -5 -75 -74 c-81 -80 -179 -139 -229 -139 -22 0 -35 7 -48
26 -15 24 -15 29 -2 53 8 14 39 39 69 55 109 57 200 156 216 234 8 38 3 39
-97 18 -83 -18 -151 -52 -219 -110 -30 -25 -62 -46 -73 -46 -10 0 -48 31 -83
69 -75 80 -130 108 -225 116 -71 6 -83 15 -100 80 -20 75 -80 174 -136 225
-30 28 -58 50 -63 50 -5 0 -13 -24 -19 -52z"/>
</g>
</svg>
